<mxfile host="Electron" modified="2023-12-28T07:41:29.143Z" agent="Mozilla/5.0 (Windows NT 10.0; Win64; x64) AppleWebKit/537.36 (KHTML, like Gecko) draw.io/22.1.2 Chrome/114.0.5735.289 Electron/25.9.4 Safari/537.36" etag="BXdINWnFkLHOLVDldxze" version="22.1.2" type="device">
  <diagram name="Страница — 1" id="4emRZTCeuJDhtwenj3co">
    <mxGraphModel dx="326" dy="229" grid="1" gridSize="10" guides="1" tooltips="1" connect="1" arrows="1" fold="1" page="1" pageScale="1" pageWidth="827" pageHeight="1169" math="0" shadow="0">
      <root>
        <mxCell id="0" />
        <mxCell id="1" parent="0" />
        <mxCell id="aLJvwkbuT3vpzs0YzECC-1" value="Администратор" style="shape=umlActor;verticalLabelPosition=bottom;verticalAlign=top;html=1;outlineConnect=0;" parent="1" vertex="1">
          <mxGeometry x="90" y="50" width="40" height="80" as="geometry" />
        </mxCell>
        <mxCell id="aLJvwkbuT3vpzs0YzECC-2" value="Абонент" style="shape=umlActor;verticalLabelPosition=bottom;verticalAlign=top;html=1;outlineConnect=0;" parent="1" vertex="1">
          <mxGeometry x="100" y="270" width="40" height="80" as="geometry" />
        </mxCell>
        <mxCell id="aLJvwkbuT3vpzs0YzECC-3" value="Бухгалтер" style="shape=umlActor;verticalLabelPosition=bottom;verticalAlign=top;html=1;outlineConnect=0;" parent="1" vertex="1">
          <mxGeometry x="390" y="52.5" width="40" height="80" as="geometry" />
        </mxCell>
        <mxCell id="aLJvwkbuT3vpzs0YzECC-7" value="Авторизация" style="ellipse;whiteSpace=wrap;html=1;" parent="1" vertex="1">
          <mxGeometry x="200" y="10" width="140" height="50" as="geometry" />
        </mxCell>
        <mxCell id="aLJvwkbuT3vpzs0YzECC-8" value="Просмотр заявок от клиента" style="ellipse;whiteSpace=wrap;html=1;" parent="1" vertex="1">
          <mxGeometry x="200" y="70" width="140" height="50" as="geometry" />
        </mxCell>
        <mxCell id="aLJvwkbuT3vpzs0YzECC-9" value="Регистрация работника" style="ellipse;whiteSpace=wrap;html=1;" parent="1" vertex="1">
          <mxGeometry x="200" y="130" width="140" height="50" as="geometry" />
        </mxCell>
        <mxCell id="aLJvwkbuT3vpzs0YzECC-10" value="Авторизация" style="ellipse;whiteSpace=wrap;html=1;" parent="1" vertex="1">
          <mxGeometry x="190" y="220" width="140" height="50" as="geometry" />
        </mxCell>
        <mxCell id="aLJvwkbuT3vpzs0YzECC-11" value="Подача заявки&lt;br&gt;для обслуживания" style="ellipse;whiteSpace=wrap;html=1;" parent="1" vertex="1">
          <mxGeometry x="190" y="290" width="140" height="50" as="geometry" />
        </mxCell>
        <mxCell id="aLJvwkbuT3vpzs0YzECC-12" value="Изменение &lt;br&gt;личных данных" style="ellipse;whiteSpace=wrap;html=1;" parent="1" vertex="1">
          <mxGeometry x="190" y="360" width="140" height="50" as="geometry" />
        </mxCell>
        <mxCell id="aLJvwkbuT3vpzs0YzECC-13" value="Авторизация" style="ellipse;whiteSpace=wrap;html=1;" parent="1" vertex="1">
          <mxGeometry x="470" y="32.5" width="140" height="50" as="geometry" />
        </mxCell>
        <mxCell id="aLJvwkbuT3vpzs0YzECC-14" value="Расчёт абонентской платы" style="ellipse;whiteSpace=wrap;html=1;" parent="1" vertex="1">
          <mxGeometry x="470" y="107.5" width="140" height="50" as="geometry" />
        </mxCell>
        <mxCell id="aLJvwkbuT3vpzs0YzECC-17" value="" style="endArrow=classic;html=1;rounded=0;entryX=0;entryY=0.5;entryDx=0;entryDy=0;" parent="1" target="aLJvwkbuT3vpzs0YzECC-13" edge="1">
          <mxGeometry width="50" height="50" relative="1" as="geometry">
            <mxPoint x="440" y="92.5" as="sourcePoint" />
            <mxPoint x="360" y="292.5" as="targetPoint" />
            <Array as="points">
              <mxPoint x="450" y="92.5" />
              <mxPoint x="450" y="57.5" />
            </Array>
          </mxGeometry>
        </mxCell>
        <mxCell id="aLJvwkbuT3vpzs0YzECC-18" value="" style="endArrow=classic;html=1;rounded=0;entryX=0;entryY=0.5;entryDx=0;entryDy=0;" parent="1" target="aLJvwkbuT3vpzs0YzECC-14" edge="1">
          <mxGeometry width="50" height="50" relative="1" as="geometry">
            <mxPoint x="450" y="92.5" as="sourcePoint" />
            <mxPoint x="480" y="77.5" as="targetPoint" />
            <Array as="points">
              <mxPoint x="450" y="102.5" />
              <mxPoint x="450" y="132.5" />
            </Array>
          </mxGeometry>
        </mxCell>
        <mxCell id="aLJvwkbuT3vpzs0YzECC-19" value="" style="endArrow=classic;html=1;rounded=0;entryX=0;entryY=0.4;entryDx=0;entryDy=0;entryPerimeter=0;" parent="1" target="aLJvwkbuT3vpzs0YzECC-7" edge="1">
          <mxGeometry width="50" height="50" relative="1" as="geometry">
            <mxPoint x="160" y="100" as="sourcePoint" />
            <mxPoint x="180" y="30" as="targetPoint" />
            <Array as="points">
              <mxPoint x="160" y="100" />
              <mxPoint x="160" y="30" />
            </Array>
          </mxGeometry>
        </mxCell>
        <mxCell id="aLJvwkbuT3vpzs0YzECC-20" value="" style="endArrow=classic;html=1;rounded=0;entryX=0;entryY=0.5;entryDx=0;entryDy=0;" parent="1" target="aLJvwkbuT3vpzs0YzECC-8" edge="1">
          <mxGeometry width="50" height="50" relative="1" as="geometry">
            <mxPoint x="160" y="95" as="sourcePoint" />
            <mxPoint x="180" y="95" as="targetPoint" />
            <Array as="points" />
          </mxGeometry>
        </mxCell>
        <mxCell id="aLJvwkbuT3vpzs0YzECC-23" value="" style="endArrow=classic;html=1;rounded=0;entryX=0;entryY=0.5;entryDx=0;entryDy=0;" parent="1" target="aLJvwkbuT3vpzs0YzECC-9" edge="1">
          <mxGeometry width="50" height="50" relative="1" as="geometry">
            <mxPoint x="160" y="100" as="sourcePoint" />
            <mxPoint x="380" y="110" as="targetPoint" />
            <Array as="points">
              <mxPoint x="160" y="155" />
            </Array>
          </mxGeometry>
        </mxCell>
        <mxCell id="aLJvwkbuT3vpzs0YzECC-24" value="" style="endArrow=none;html=1;rounded=0;" parent="1" edge="1">
          <mxGeometry width="50" height="50" relative="1" as="geometry">
            <mxPoint x="140" y="95" as="sourcePoint" />
            <mxPoint x="160" y="95" as="targetPoint" />
          </mxGeometry>
        </mxCell>
        <mxCell id="aLJvwkbuT3vpzs0YzECC-26" value="" style="endArrow=classic;html=1;rounded=0;entryX=0;entryY=0.5;entryDx=0;entryDy=0;" parent="1" target="aLJvwkbuT3vpzs0YzECC-10" edge="1">
          <mxGeometry width="50" height="50" relative="1" as="geometry">
            <mxPoint x="150" y="310" as="sourcePoint" />
            <mxPoint x="360" y="280" as="targetPoint" />
            <Array as="points">
              <mxPoint x="170" y="310" />
              <mxPoint x="170" y="245" />
            </Array>
          </mxGeometry>
        </mxCell>
        <mxCell id="aLJvwkbuT3vpzs0YzECC-27" value="" style="endArrow=classic;html=1;rounded=0;entryX=0.007;entryY=0.405;entryDx=0;entryDy=0;entryPerimeter=0;" parent="1" target="aLJvwkbuT3vpzs0YzECC-11" edge="1">
          <mxGeometry width="50" height="50" relative="1" as="geometry">
            <mxPoint x="170" y="310" as="sourcePoint" />
            <mxPoint x="320" y="280" as="targetPoint" />
          </mxGeometry>
        </mxCell>
        <mxCell id="aLJvwkbuT3vpzs0YzECC-28" value="" style="endArrow=classic;html=1;rounded=0;entryX=0;entryY=0.5;entryDx=0;entryDy=0;" parent="1" target="aLJvwkbuT3vpzs0YzECC-12" edge="1">
          <mxGeometry width="50" height="50" relative="1" as="geometry">
            <mxPoint x="170" y="310" as="sourcePoint" />
            <mxPoint x="320" y="280" as="targetPoint" />
            <Array as="points">
              <mxPoint x="170" y="385" />
            </Array>
          </mxGeometry>
        </mxCell>
        <mxCell id="-z2lsYNmDtUKMQb4oD7g-1" value="Просмотр&lt;br&gt;иформации&lt;br&gt;о звонках" style="ellipse;whiteSpace=wrap;html=1;" parent="1" vertex="1">
          <mxGeometry x="190" y="420" width="140" height="70" as="geometry" />
        </mxCell>
        <mxCell id="w1ArSCNweIEuQHJTIfPA-1" value="" style="endArrow=classic;html=1;rounded=0;entryX=0;entryY=0.5;entryDx=0;entryDy=0;" parent="1" edge="1">
          <mxGeometry width="50" height="50" relative="1" as="geometry">
            <mxPoint x="170" y="380" as="sourcePoint" />
            <mxPoint x="190" y="455" as="targetPoint" />
            <Array as="points">
              <mxPoint x="170" y="455" />
            </Array>
          </mxGeometry>
        </mxCell>
        <mxCell id="fAdulyqdJsssErlLzccn-1" value="Оператор&lt;br&gt;(консультант)" style="shape=umlActor;verticalLabelPosition=bottom;verticalAlign=top;html=1;outlineConnect=0;" parent="1" vertex="1">
          <mxGeometry x="390" y="272.5" width="40" height="80" as="geometry" />
        </mxCell>
        <mxCell id="fAdulyqdJsssErlLzccn-2" value="Авторизация" style="ellipse;whiteSpace=wrap;html=1;" parent="1" vertex="1">
          <mxGeometry x="470" y="252.5" width="140" height="50" as="geometry" />
        </mxCell>
        <mxCell id="fAdulyqdJsssErlLzccn-3" value="Обзвон клиентов" style="ellipse;whiteSpace=wrap;html=1;" parent="1" vertex="1">
          <mxGeometry x="470" y="327.5" width="140" height="50" as="geometry" />
        </mxCell>
        <mxCell id="fAdulyqdJsssErlLzccn-4" value="" style="endArrow=classic;html=1;rounded=0;entryX=0;entryY=0.5;entryDx=0;entryDy=0;" parent="1" target="fAdulyqdJsssErlLzccn-2" edge="1">
          <mxGeometry width="50" height="50" relative="1" as="geometry">
            <mxPoint x="440" y="312.5" as="sourcePoint" />
            <mxPoint x="360" y="512.5" as="targetPoint" />
            <Array as="points">
              <mxPoint x="450" y="312.5" />
              <mxPoint x="450" y="277.5" />
            </Array>
          </mxGeometry>
        </mxCell>
        <mxCell id="fAdulyqdJsssErlLzccn-5" value="" style="endArrow=classic;html=1;rounded=0;entryX=0;entryY=0.5;entryDx=0;entryDy=0;" parent="1" target="fAdulyqdJsssErlLzccn-3" edge="1">
          <mxGeometry width="50" height="50" relative="1" as="geometry">
            <mxPoint x="450" y="312.5" as="sourcePoint" />
            <mxPoint x="480" y="297.5" as="targetPoint" />
            <Array as="points">
              <mxPoint x="450" y="322.5" />
              <mxPoint x="450" y="352.5" />
            </Array>
          </mxGeometry>
        </mxCell>
      </root>
    </mxGraphModel>
  </diagram>
</mxfile>
